<svg width="111" height="38" viewBox="0 0 111 38" fill="none" xmlns="http://www.w3.org/2000/svg">
<g clip-path="url(#clip0_151_8498)">
<path d="M101.84 0.951169H9.36476C9.02767 0.951169 8.69463 0.951169 8.35844 0.953002C8.07701 0.954836 7.79783 0.960161 7.5137 0.964644C6.89644 0.971887 6.28064 1.02604 5.67164 1.12663C5.06349 1.22941 4.47439 1.42317 3.92427 1.70138C3.37482 1.98193 2.87278 2.34649 2.43634 2.78182C1.99762 3.21592 1.63191 3.71768 1.35328 4.26782C1.07387 4.81685 0.880135 5.4052 0.778752 6.01252C0.676405 6.61909 0.621331 7.23265 0.614024 7.84769C0.605494 8.12874 0.604593 8.41073 0.600098 8.69181V29.8799C0.604593 30.1645 0.605494 30.4402 0.614024 30.725C0.621333 31.34 0.676407 31.9535 0.778752 32.56C0.879855 33.1677 1.07361 33.7564 1.35328 34.3056C1.63178 34.854 1.99755 35.3537 2.43634 35.7854C2.87112 36.2227 3.37349 36.5875 3.92427 36.8659C4.47439 37.1448 5.06342 37.3398 5.67164 37.4441C6.28074 37.5439 6.89648 37.5981 7.5137 37.6062C7.79783 37.6124 8.07701 37.616 8.35844 37.616C8.69462 37.6178 9.02769 37.6178 9.36476 37.6178H101.84C102.171 37.6178 102.506 37.6178 102.837 37.616C103.117 37.616 103.404 37.6124 103.684 37.6062C104.3 37.5985 104.915 37.5443 105.523 37.4441C106.133 37.339 106.724 37.1442 107.277 36.8659C107.827 36.5873 108.329 36.2225 108.763 35.7854C109.201 35.352 109.568 34.8527 109.85 34.3056C110.127 33.756 110.319 33.1674 110.419 32.56C110.521 31.9534 110.578 31.34 110.589 30.725C110.593 30.4402 110.593 30.1645 110.593 29.8799C110.6 29.5469 110.6 29.2157 110.6 28.8772V9.69262C110.6 9.35693 110.6 9.02392 110.593 8.69181C110.593 8.41073 110.593 8.12874 110.589 7.84765C110.578 7.23256 110.521 6.61913 110.419 6.01249C110.319 5.40551 110.127 4.81721 109.85 4.26778C109.282 3.1651 108.382 2.26753 107.277 1.7013C106.724 1.42377 106.133 1.23006 105.523 1.12655C104.915 1.02551 104.3 0.971343 103.684 0.964516C103.404 0.960042 103.117 0.954671 102.837 0.952883C102.506 0.95105 102.171 0.95105 101.84 0.95105V0.951169Z" fill="black"/>
<path d="M8.36266 36.8158C8.08259 36.8158 7.80928 36.8122 7.5314 36.806C6.95576 36.7985 6.38146 36.7485 5.81322 36.6565C5.28336 36.5655 4.77007 36.3962 4.29027 36.1542C3.81488 35.9143 3.38129 35.5996 3.0061 35.2223C2.62548 34.8495 2.30859 34.4171 2.068 33.9422C1.82476 33.4643 1.65642 32.9519 1.56885 32.4231C1.47429 31.8549 1.42312 31.2803 1.4158 30.7044C1.40997 30.511 1.40234 29.8674 1.40234 29.8674V8.69186C1.40234 8.69186 1.41047 8.05806 1.41585 7.87186C1.42286 7.29682 1.47372 6.72314 1.56801 6.1558C1.65574 5.62552 1.82421 5.11173 2.06758 4.63221C2.30728 4.15766 2.62241 3.72492 3.00074 3.35075C3.37864 2.97303 3.81362 2.65677 4.28982 2.41349C4.76851 2.1723 5.28083 2.00422 5.80962 1.91488C6.37973 1.8219 6.95603 1.77163 7.53367 1.76449L8.36311 1.7533H102.832L103.671 1.76494C104.244 1.77172 104.815 1.82154 105.38 1.91398C105.914 2.00444 106.432 2.17369 106.916 2.41617C107.87 2.90645 108.646 3.68211 109.136 4.63444C109.375 5.11066 109.541 5.62026 109.628 6.14595C109.723 6.71795 109.776 7.29614 109.787 7.87589C109.79 8.13549 109.79 8.41434 109.79 8.69186C109.797 9.03561 109.797 9.36279 109.797 9.69266V28.8773C109.797 29.2103 109.797 29.5353 109.79 29.8629C109.79 30.161 109.79 30.434 109.786 30.7151C109.776 31.2845 109.723 31.8524 109.629 32.4141C109.544 32.9468 109.376 33.4631 109.133 33.945C108.891 34.4147 108.576 34.8434 108.199 35.2152C107.824 35.5945 107.39 35.911 106.913 36.1525C106.43 36.3963 105.913 36.5662 105.38 36.6565C104.812 36.749 104.237 36.799 103.662 36.806C103.392 36.8122 103.11 36.8158 102.837 36.8158L101.84 36.8176L8.36266 36.8158Z" fill="white"/>
<path d="M23.5776 19.183C23.5878 18.3874 23.7998 17.6073 24.1936 16.9153C24.5875 16.2233 25.1505 15.6419 25.8302 15.2251C25.3984 14.6101 24.8287 14.104 24.1665 13.747C23.5042 13.3899 22.7675 13.1918 22.015 13.1683C20.4098 13.0003 18.8536 14.1262 18.0356 14.1262C17.2018 14.1262 15.9424 13.185 14.5862 13.2128C13.709 13.2411 12.8541 13.4955 12.1048 13.9512C11.3554 14.4069 10.7373 15.0484 10.3105 15.8132C8.46181 19.005 9.84077 23.6959 11.6117 26.276C12.4977 27.5394 13.5332 28.9506 14.8882 28.9005C16.2141 28.8457 16.7093 28.0574 18.3098 28.0574C19.8954 28.0574 20.36 28.9005 21.7425 28.8687C23.1653 28.8457 24.0617 27.5997 24.9166 26.3244C25.5532 25.4242 26.0431 24.4293 26.3681 23.3765C25.5415 23.0279 24.8361 22.4443 24.3399 21.6986C23.8437 20.9529 23.5785 20.078 23.5776 19.183Z" fill="black"/>
<path d="M20.9662 11.4717C21.742 10.543 22.1242 9.34941 22.0316 8.14429C20.8464 8.26842 19.7517 8.83327 18.9654 9.72629C18.581 10.1626 18.2866 10.6701 18.099 11.2199C17.9114 11.7697 17.8343 12.351 17.8721 12.9305C18.4649 12.9366 19.0514 12.8085 19.5873 12.5558C20.1233 12.3031 20.5947 11.9324 20.9662 11.4717V11.4717Z" fill="black"/>
<path d="M39.4851 25.8292H35.134L34.0891 28.906H32.2461L36.3674 17.5228H38.2822L42.4035 28.906H40.5291L39.4851 25.8292ZM35.5846 24.4095H39.0336L37.3334 19.4162H37.2858L35.5846 24.4095Z" fill="black"/>
<path d="M51.3044 24.757C51.3044 27.336 49.9202 28.993 47.8313 28.993C47.3021 29.0206 46.7758 28.899 46.3127 28.6422C45.8496 28.3855 45.4684 28.0038 45.2127 27.541H45.1732V31.6517H43.4648V20.6069H45.1184V21.9873H45.1498C45.4173 21.5267 45.8049 21.147 46.2716 20.8887C46.7382 20.6303 47.2664 20.5029 47.7998 20.5201C49.9121 20.5201 51.3044 22.1851 51.3044 24.757ZM49.5485 24.757C49.5485 23.0767 48.6778 21.9721 47.3492 21.9721C46.0439 21.9721 45.166 23.1 45.166 24.757C45.166 26.4292 46.0439 27.5491 47.3492 27.5491C48.6778 27.5491 49.5485 26.4525 49.5485 24.757H49.5485Z" fill="black"/>
<path d="M60.4646 24.757C60.4646 27.336 59.0799 28.993 56.9909 28.993C56.4618 29.0206 55.9355 28.899 55.4724 28.6422C55.0093 28.3855 54.6281 28.0038 54.3724 27.541H54.3328V31.6517H52.6245V20.6069H54.2781V21.9873H54.3095C54.5769 21.5267 54.9646 21.147 55.4312 20.8887C55.8979 20.6303 56.426 20.5029 56.9595 20.5201C59.0718 20.5201 60.4646 22.1851 60.4646 24.757ZM58.7082 24.757C58.7082 23.0767 57.8375 21.9721 56.5089 21.9721C55.2036 21.9721 54.3257 23.1 54.3257 24.757C54.3257 26.4292 55.2036 27.5491 56.5089 27.5491C57.8375 27.5491 58.7082 26.4525 58.7082 24.757V24.757Z" fill="black"/>
<path d="M66.5178 25.7343C66.6444 26.8632 67.7441 27.6043 69.2468 27.6043C70.6867 27.6043 71.7226 26.8631 71.7226 25.8453C71.7226 24.9618 71.0978 24.4327 69.6184 24.0702L68.139 23.7148C66.0429 23.2099 65.0698 22.2323 65.0698 20.6461C65.0698 18.682 66.7862 17.333 69.2226 17.333C71.6356 17.333 73.2891 18.682 73.3448 20.6461H71.6203C71.5171 19.5101 70.5754 18.8244 69.1992 18.8244C67.823 18.8244 66.8814 19.5182 66.8814 20.5279C66.8814 21.3327 67.4828 21.8062 68.9541 22.1688L70.2118 22.4767C72.5539 23.029 73.5261 23.9672 73.5261 25.6322C73.5261 27.7618 71.8259 29.0957 69.1202 29.0957C66.5887 29.0957 64.8795 27.7932 64.769 25.7343L66.5178 25.7343Z" fill="black"/>
<path d="M77.2151 18.6427V20.6067H78.7977V21.9558H77.2151V26.531C77.2151 27.2418 77.532 27.573 78.2277 27.573C78.4156 27.5698 78.6031 27.5566 78.7896 27.5336V28.8746C78.4768 28.9329 78.1589 28.9593 77.8408 28.9534C76.1558 28.9534 75.4987 28.3223 75.4987 26.7127V21.9558H74.2886V20.6067H75.4986V18.6427H77.2151Z" fill="black"/>
<path d="M79.7129 24.7568C79.7129 22.1455 81.2551 20.5046 83.6601 20.5046C86.0731 20.5046 87.6081 22.1455 87.6081 24.7568C87.6081 27.3752 86.0811 29.0089 83.6601 29.0089C81.2399 29.0089 79.7129 27.3752 79.7129 24.7568ZM85.8675 24.7568C85.8675 22.9655 85.0443 21.9083 83.6601 21.9083C82.2758 21.9083 81.4526 22.9736 81.4526 24.7568C81.4526 26.5552 82.2758 27.6043 83.6601 27.6043C85.0443 27.6043 85.8675 26.5552 85.8675 24.7568H85.8675Z" fill="black"/>
<path d="M89.0166 20.6068H90.6459V22.0194H90.6855C90.7957 21.5782 91.0549 21.1884 91.4194 20.9153C91.784 20.6422 92.2317 20.5026 92.6873 20.52C92.8842 20.5193 93.0805 20.5406 93.2726 20.5836V22.177C93.0241 22.1013 92.7648 22.0665 92.505 22.074C92.2569 22.064 92.0095 22.1076 91.7798 22.2019C91.5501 22.2963 91.3436 22.439 91.1745 22.6204C91.0054 22.8018 90.8777 23.0176 90.8001 23.2528C90.7224 23.4881 90.6968 23.7374 90.7249 23.9835V28.9061H89.0166L89.0166 20.6068Z" fill="black"/>
<path d="M101.149 26.4683C100.919 27.9749 99.4479 29.0089 97.5654 29.0089C95.1443 29.0089 93.6416 27.3913 93.6416 24.7961C93.6416 22.193 95.1524 20.5046 97.4936 20.5046C99.7962 20.5046 101.244 22.0819 101.244 24.5983V25.182H95.3661V25.2849C95.3389 25.5903 95.3773 25.898 95.4786 26.1876C95.5799 26.4771 95.7417 26.7418 95.9535 26.9641C96.1653 27.1865 96.422 27.3613 96.7068 27.4771C96.9915 27.5929 97.2977 27.6469 97.6049 27.6357C98.0086 27.6734 98.4137 27.5801 98.76 27.3698C99.1063 27.1595 99.3753 26.8433 99.5269 26.4683L101.149 26.4683ZM95.3741 23.9914H99.535C99.5503 23.7167 99.5086 23.4419 99.4123 23.1841C99.3161 22.9264 99.1675 22.6912 98.9758 22.4934C98.7841 22.2956 98.5535 22.1395 98.2985 22.0348C98.0434 21.9301 97.7694 21.8791 97.4936 21.885C97.2154 21.8834 96.9397 21.9367 96.6822 22.0418C96.4248 22.147 96.1908 22.302 95.9938 22.4978C95.7967 22.6937 95.6405 22.9265 95.5342 23.1828C95.4278 23.4392 95.3734 23.714 95.3741 23.9914V23.9914Z" fill="black"/>
<path d="M35.3713 8.95481C35.7295 8.92919 36.0889 8.98314 36.4236 9.11279C36.7583 9.24243 37.06 9.44454 37.3069 9.70453C37.5538 9.96452 37.7397 10.2759 37.8513 10.6162C37.9629 10.9566 37.9974 11.3174 37.9522 11.6726C37.9522 13.42 37.0052 14.4244 35.3713 14.4244H33.3901V8.95481H35.3713ZM34.242 13.6509H35.2762C35.5321 13.6662 35.7882 13.6243 36.0259 13.5284C36.2635 13.4325 36.4768 13.285 36.65 13.0965C36.8233 12.9081 36.9523 12.6835 37.0275 12.4391C37.1028 12.1947 37.1224 11.9367 37.085 11.6837C37.1197 11.4318 37.0981 11.1753 37.0217 10.9327C36.9452 10.6901 36.816 10.4674 36.6431 10.2804C36.4702 10.0935 36.258 9.94701 36.0217 9.85146C35.7854 9.75591 35.5308 9.71367 35.2762 9.72776H34.242V13.6509Z" fill="black"/>
<path d="M38.914 12.3585C38.888 12.0872 38.9191 11.8135 39.0054 11.555C39.0916 11.2964 39.2311 11.0587 39.4149 10.857C39.5987 10.6554 39.8228 10.4943 40.0727 10.384C40.3226 10.2737 40.5928 10.2168 40.8661 10.2168C41.1393 10.2168 41.4096 10.2737 41.6595 10.384C41.9094 10.4943 42.1334 10.6554 42.3172 10.857C42.501 11.0587 42.6405 11.2964 42.7267 11.555C42.813 11.8135 42.8441 12.0872 42.8181 12.3585C42.8446 12.63 42.8139 12.9041 42.7278 13.1631C42.6418 13.422 42.5024 13.6602 42.3185 13.8623C42.1347 14.0643 41.9105 14.2258 41.6604 14.3362C41.4102 14.4467 41.1396 14.5038 40.8661 14.5038C40.5925 14.5038 40.3219 14.4467 40.0718 14.3362C39.8216 14.2258 39.5974 14.0643 39.4136 13.8623C39.2297 13.6602 39.0903 13.422 39.0043 13.1631C38.9182 12.9041 38.8875 12.63 38.914 12.3585V12.3585ZM41.9778 12.3585C41.9778 11.4637 41.5748 10.9405 40.8674 10.9405C40.1573 10.9405 39.7579 11.4637 39.7579 12.3585C39.7579 13.2604 40.1574 13.7796 40.8674 13.7796C41.5748 13.7796 41.9779 13.2568 41.9779 12.3585H41.9778Z" fill="black"/>
<path d="M48.0085 14.4243H47.1611L46.3056 11.3843H46.2409L45.389 14.4243H44.5497L43.4087 10.2966H44.2373L44.9788 13.4463H45.0398L45.8908 10.2966H46.6745L47.5255 13.4463H47.5902L48.3281 10.2966H49.145L48.0085 14.4243Z" fill="black"/>
<path d="M50.104 10.2965H50.8904V10.9522H50.9514C51.055 10.7167 51.2296 10.5193 51.4511 10.3875C51.6725 10.2556 51.9296 10.196 52.1867 10.2168C52.3881 10.2017 52.5903 10.232 52.7784 10.3054C52.9664 10.3789 53.1355 10.4935 53.2731 10.641C53.4107 10.7884 53.5133 10.9648 53.5732 11.1572C53.6332 11.3495 53.6489 11.5528 53.6194 11.7521V14.4241H52.8025V11.9566C52.8025 11.2933 52.5134 10.9634 51.9093 10.9634C51.7725 10.9571 51.636 10.9803 51.5091 11.0315C51.3822 11.0826 51.2679 11.1606 51.174 11.2599C51.0801 11.3593 51.0089 11.4777 50.9652 11.6071C50.9215 11.7364 50.9064 11.8737 50.9209 12.0094V14.4242H50.104L50.104 10.2965Z" fill="black"/>
<path d="M54.9214 8.68518H55.7383V14.4242H54.9214V8.68518Z" fill="black"/>
<path d="M56.8735 12.3586C56.8475 12.0873 56.8786 11.8136 56.9649 11.555C57.0512 11.2964 57.1907 11.0587 57.3745 10.857C57.5583 10.6554 57.7824 10.4943 58.0323 10.384C58.2822 10.2738 58.5525 10.2168 58.8257 10.2168C59.099 10.2168 59.3693 10.2738 59.6192 10.384C59.8691 10.4943 60.0931 10.6554 60.277 10.857C60.4608 11.0587 60.6003 11.2964 60.6866 11.555C60.7729 11.8136 60.804 12.0873 60.778 12.3586C60.8045 12.6301 60.7737 12.9042 60.6876 13.1632C60.6016 13.4221 60.4621 13.6603 60.2783 13.8623C60.0944 14.0644 59.8702 14.2258 59.62 14.3363C59.3699 14.4468 59.0993 14.5039 58.8257 14.5039C58.5521 14.5039 58.2816 14.4468 58.0314 14.3363C57.7813 14.2258 57.557 14.0644 57.3732 13.8623C57.1893 13.6603 57.0499 13.4221 56.9638 13.1632C56.8778 12.9042 56.847 12.6301 56.8735 12.3586V12.3586ZM59.9373 12.3586C59.9373 11.4638 59.5342 10.9406 58.8269 10.9406C58.1168 10.9406 57.7173 11.4638 57.7173 12.3586C57.7173 13.2605 58.1168 13.7797 58.8269 13.7797C59.5342 13.7797 59.9373 13.2569 59.9373 12.3586H59.9373Z" fill="black"/>
<path d="M61.6382 13.2568C61.6382 12.5138 62.193 12.0855 63.1777 12.0246L64.299 11.9602V11.6039C64.299 11.1679 64.0099 10.9218 63.4515 10.9218C62.9955 10.9218 62.6795 11.0887 62.5888 11.3805H61.798C61.8815 10.6715 62.5502 10.2168 63.4892 10.2168C64.527 10.2168 65.1123 10.732 65.1123 11.6039V14.4241H64.3259V13.8441H64.2613C64.1301 14.0521 63.9458 14.2218 63.7274 14.3356C63.509 14.4495 63.2642 14.5035 63.0179 14.4922C62.8442 14.5102 62.6685 14.4917 62.5024 14.4379C62.3362 14.3841 62.1832 14.2961 62.0532 14.1798C61.9232 14.0634 61.8191 13.9211 61.7476 13.7621C61.6762 13.6032 61.6389 13.431 61.6382 13.2568V13.2568ZM64.299 12.9041V12.559L63.2881 12.6235C62.7181 12.6615 62.4596 12.8549 62.4596 13.2188C62.4596 13.5903 62.7827 13.8065 63.2271 13.8065C63.3573 13.8196 63.4889 13.8065 63.6139 13.7679C63.7389 13.7293 63.8549 13.6661 63.9549 13.5819C64.0549 13.4977 64.1369 13.3943 64.196 13.2779C64.2551 13.1614 64.2901 13.0343 64.299 12.9041V12.9041Z" fill="black"/>
<path d="M66.186 12.3586C66.186 11.0543 66.8584 10.228 67.9042 10.228C68.1629 10.2162 68.4196 10.2779 68.6444 10.4062C68.8692 10.5344 69.0527 10.7238 69.1736 10.9522H69.2346V8.68518H70.0515V14.4242H69.2687V13.772H69.2041C69.0739 13.9989 68.884 14.1859 68.6549 14.3129C68.4257 14.4398 68.1662 14.5018 67.9042 14.4922C66.8512 14.4923 66.186 13.666 66.186 12.3586ZM67.0299 12.3586C67.0299 13.2341 67.4437 13.7609 68.1359 13.7609C68.8244 13.7609 69.2499 13.2265 69.2499 12.3622C69.2499 11.5019 68.8199 10.9599 68.1359 10.9599C67.4482 10.9599 67.0299 11.4902 67.0299 12.3586H67.0299Z" fill="black"/>
<path d="M73.4311 12.3585C73.4051 12.0872 73.4362 11.8135 73.5225 11.555C73.6087 11.2964 73.7482 11.0587 73.932 10.857C74.1158 10.6554 74.3398 10.4943 74.5897 10.384C74.8396 10.2737 75.1099 10.2168 75.3831 10.2168C75.6564 10.2168 75.9267 10.2737 76.1765 10.384C76.4264 10.4943 76.6505 10.6554 76.8343 10.857C77.0181 11.0587 77.1576 11.2964 77.2438 11.555C77.3301 11.8135 77.3612 12.0872 77.3352 12.3585C77.3617 12.63 77.331 12.9041 77.2449 13.1631C77.1589 13.422 77.0195 13.6602 76.8356 13.8623C76.6518 14.0643 76.4276 14.2258 76.1774 14.3362C75.9273 14.4467 75.6567 14.5038 75.3831 14.5038C75.1096 14.5038 74.839 14.4467 74.5888 14.3362C74.3387 14.2258 74.1145 14.0643 73.9307 13.8623C73.7468 13.6602 73.6074 13.422 73.5214 13.1631C73.4353 12.9041 73.4046 12.63 73.4311 12.3585V12.3585ZM76.4949 12.3585C76.4949 11.4637 76.0919 10.9405 75.3845 10.9405C74.6744 10.9405 74.275 11.4637 74.275 12.3585C74.275 13.2604 74.6744 13.7796 75.3845 13.7796C76.0919 13.7796 76.4949 13.2568 76.4949 12.3585Z" fill="black"/>
<path d="M78.4316 10.2965H79.218V10.9522H79.2791C79.3826 10.7167 79.5573 10.5193 79.7787 10.3875C80.0001 10.2556 80.2573 10.196 80.5143 10.2168C80.7157 10.2017 80.9179 10.232 81.106 10.3054C81.2941 10.3789 81.4632 10.4935 81.6008 10.641C81.7384 10.7884 81.8409 10.9648 81.9009 11.1572C81.9608 11.3495 81.9766 11.5528 81.947 11.7521V14.4241H81.1301V11.9566C81.1301 11.2933 80.8411 10.9634 80.2369 10.9634C80.1002 10.9571 79.9637 10.9803 79.8368 11.0315C79.7098 11.0826 79.5955 11.1606 79.5017 11.2599C79.4078 11.3593 79.3366 11.4777 79.2929 11.6071C79.2492 11.7364 79.2341 11.8737 79.2485 12.0094V14.4242H78.4316V10.2965Z" fill="black"/>
<path d="M86.5633 9.26892V10.3154H87.4601V11.0015H86.5633V13.124C86.5633 13.5564 86.7419 13.7457 87.1486 13.7457C87.2527 13.7454 87.3567 13.7391 87.4601 13.7269V14.4055C87.3134 14.4316 87.1647 14.4456 87.0157 14.4471C86.1073 14.4471 85.7455 14.1284 85.7455 13.3326V11.0015H85.0884V10.3154H85.7455V9.26892H86.5633Z" fill="black"/>
<path d="M88.5757 8.68518H89.3854V10.9598H89.45C89.5586 10.7221 89.7381 10.5236 89.9639 10.3913C90.1898 10.259 90.4511 10.1993 90.7121 10.2204C90.9125 10.2096 91.1128 10.2429 91.2987 10.3181C91.4847 10.3933 91.6517 10.5085 91.7879 10.6555C91.924 10.8025 92.026 10.9776 92.0864 11.1684C92.1469 11.3592 92.1644 11.5609 92.1377 11.7592V14.4242H91.32V11.9602C91.32 11.3009 91.012 10.967 90.4348 10.967C90.2944 10.9555 90.1532 10.9748 90.021 11.0234C89.8889 11.072 89.769 11.1489 89.6697 11.2485C89.5704 11.3482 89.4942 11.4683 89.4463 11.6004C89.3985 11.7326 89.3801 11.8735 89.3926 12.0135V14.4242H88.5757L88.5757 8.68518Z" fill="black"/>
<path d="M96.9011 13.3097C96.7901 13.687 96.5496 14.0133 96.2217 14.2316C95.8938 14.4499 95.4994 14.5463 95.1075 14.5039C94.8348 14.5111 94.5638 14.459 94.3133 14.3512C94.0628 14.2435 93.8388 14.0827 93.6569 13.88C93.4749 13.6773 93.3394 13.4375 93.2597 13.1774C93.1801 12.9172 93.1581 12.6428 93.1954 12.3734C93.1591 12.103 93.1814 11.8281 93.2609 11.5672C93.3404 11.3062 93.4752 11.0653 93.6562 10.8609C93.8372 10.6564 94.0601 10.4931 94.3098 10.3819C94.5596 10.2708 94.8304 10.2145 95.1039 10.2169C96.2556 10.2169 96.9504 11.0015 96.9504 12.2977V12.5819H94.0275V12.6276C94.0148 12.7791 94.0338 12.9315 94.0836 13.0752C94.1334 13.2189 94.2127 13.3507 94.3165 13.462C94.4202 13.5733 94.5462 13.6618 94.6863 13.7217C94.8264 13.7817 94.9775 13.8118 95.1299 13.8101C95.3253 13.8335 95.5233 13.7984 95.6986 13.7093C95.874 13.6202 96.0188 13.4811 96.1147 13.3097L96.9011 13.3097ZM94.0275 11.9795H96.1183C96.1286 11.8409 96.1097 11.7018 96.0628 11.571C96.016 11.4401 95.9422 11.3205 95.8463 11.2198C95.7503 11.1191 95.6343 11.0396 95.5057 10.9862C95.377 10.9329 95.2386 10.907 95.0994 10.9102C94.9581 10.9084 94.8179 10.9349 94.687 10.988C94.5561 11.0411 94.4372 11.1198 94.3374 11.2195C94.2375 11.3191 94.1586 11.4377 94.1054 11.5682C94.0522 11.6988 94.0257 11.8386 94.0275 11.9795H94.0275Z" fill="black"/>
</g>
<defs>
<clipPath id="clip0_151_8498">
<rect width="110" height="36.6667" fill="white" transform="translate(0.600098 0.951172)"/>
</clipPath>
</defs>
</svg>
