<svg width="125" height="38" viewBox="0 0 125 38" fill="none" xmlns="http://www.w3.org/2000/svg">
<g clip-path="url(#clip0_151_8497)">
<path d="M120 0.951172H4.9999C2.45939 0.951172 0.399902 2.99552 0.399902 5.51735V32.9144C0.399902 35.4362 2.45939 37.4806 4.9999 37.4806H120C122.54 37.4806 124.6 35.4362 124.6 32.9144V5.51735C124.6 2.99552 122.54 0.951172 120 0.951172Z" fill="white"/>
<path d="M120 1.68176C121.025 1.68176 122.008 2.08587 122.732 2.80518C123.457 3.52449 123.864 4.50009 123.864 5.51735V32.9144C123.864 33.9317 123.457 34.9073 122.732 35.6266C122.008 36.3459 121.025 36.75 120 36.75H4.9999C3.97511 36.75 2.99228 36.3459 2.26764 35.6266C1.543 34.9073 1.1359 33.9317 1.1359 32.9144V5.51735C1.1359 4.50009 1.543 3.52449 2.26764 2.80518C2.99228 2.08587 3.97511 1.68176 4.9999 1.68176H120ZM120 0.951172H4.9999C3.77991 0.951172 2.60988 1.43225 1.74721 2.28857C0.884544 3.1449 0.399902 4.30632 0.399902 5.51735V32.9144C0.399902 34.1254 0.884544 35.2869 1.74721 36.1432C2.60988 36.9995 3.77991 37.4806 4.9999 37.4806H120C121.22 37.4806 122.39 36.9995 123.253 36.1432C124.115 35.2869 124.6 34.1254 124.6 32.9144V5.51735C124.6 4.30632 124.115 3.1449 123.253 2.28857C122.39 1.43225 121.22 0.951172 120 0.951172Z" fill="black"/>
<path d="M44.0258 10.3028C44.0409 10.6377 43.9876 10.9722 43.869 11.2861C43.7504 11.6 43.569 11.8868 43.3358 12.1293C43.0745 12.3971 42.7591 12.6072 42.4103 12.7456C42.0615 12.8841 41.6872 12.9479 41.3118 12.9329C40.9343 12.9413 40.5591 12.8726 40.2093 12.7313C39.8596 12.5899 39.5428 12.3788 39.2786 12.111C38.7425 11.5667 38.4424 10.8357 38.4424 10.0745C38.4424 9.31327 38.7425 8.58229 39.2786 8.03797C39.6885 7.64042 40.2076 7.37198 40.7706 7.26637C41.3337 7.16075 41.9157 7.22268 42.4434 7.44437C42.7752 7.57973 43.0711 7.7891 43.3082 8.05623L42.8206 8.54025C42.6379 8.32178 42.4064 8.14859 42.1445 8.03445C41.8826 7.92032 41.5975 7.86836 41.3118 7.88272C40.9512 7.88519 40.5967 7.97531 40.2792 8.1452C39.9618 8.31508 39.6911 8.55955 39.4909 8.85726C39.2906 9.15496 39.1668 9.49682 39.1304 9.85296C39.094 10.2091 39.1459 10.5687 39.2818 10.9003C39.4177 11.2319 39.6333 11.5254 39.9099 11.7551C40.1864 11.9849 40.5155 12.1439 40.8682 12.2183C41.221 12.2927 41.5867 12.2802 41.9335 12.1819C42.2802 12.0836 42.5975 11.9025 42.8574 11.6544C43.1384 11.3485 43.3014 10.9539 43.3174 10.5402H41.3118V9.8827H43.989C44.01 10.0218 44.0223 10.1621 44.0258 10.3028Z" fill="black" stroke="black" stroke-width="0.411304" stroke-miterlimit="10"/>
<path d="M48.2397 8.01942H45.7557V9.75457H48.0189V10.4121H45.7557V12.1472H48.2397V12.823H45.0381V7.34363H48.2397V8.01942Z" fill="black" stroke="black" stroke-width="0.411304" stroke-miterlimit="10"/>
<path d="M51.2574 12.823H50.549V8.01942H49.0034V7.34363H52.8398V8.01942H51.2574V12.823Z" fill="black" stroke="black" stroke-width="0.411304" stroke-miterlimit="10"/>
<path d="M55.5444 12.823V7.34363H56.2528V12.823H55.5444Z" fill="black" stroke="black" stroke-width="0.411304" stroke-miterlimit="10"/>
<path d="M59.399 12.823H58.6906V8.01942H57.145V7.34363H60.9354V8.01942H59.399V12.823Z" fill="black" stroke="black" stroke-width="0.411304" stroke-miterlimit="10"/>
<path d="M68.1209 12.1108C67.8551 12.3748 67.5396 12.5842 67.1923 12.7271C66.845 12.87 66.4728 12.9435 66.0969 12.9435C65.7209 12.9435 65.3487 12.87 65.0014 12.7271C64.6541 12.5842 64.3386 12.3748 64.0729 12.1108C63.5528 11.562 63.2632 10.8369 63.2632 10.0835C63.2632 9.32998 63.5528 8.60489 64.0729 8.05608C64.3328 7.78467 64.6473 7.57045 64.996 7.4273C65.3446 7.28414 65.7197 7.21524 66.0969 7.22504C66.4735 7.21912 66.8474 7.2898 67.1955 7.43273C67.5436 7.57565 67.8585 7.78779 68.1209 8.05608C68.3854 8.32319 68.5933 8.64022 68.7324 8.98843C68.8714 9.33664 68.9388 9.70898 68.9305 10.0835C68.9425 10.4584 68.8769 10.8318 68.7376 11.1806C68.5984 11.5293 68.3884 11.8459 68.1209 12.1108ZM64.5973 11.6542C64.7932 11.8514 65.0267 12.0079 65.2842 12.1148C65.5416 12.2216 65.8178 12.2766 66.0969 12.2766C66.3759 12.2766 66.6521 12.2216 66.9096 12.1148C67.167 12.0079 67.4005 11.8514 67.5965 11.6542C67.9934 11.226 68.2138 10.6654 68.2138 10.0835C68.2138 9.50155 67.9934 8.94089 67.5965 8.5127C67.4005 8.31555 67.167 8.15901 66.9096 8.05217C66.6521 7.94533 66.3759 7.89031 66.0969 7.89031C65.8178 7.89031 65.5416 7.94533 65.2842 8.05217C65.0267 8.15901 64.7932 8.31555 64.5973 8.5127C64.2003 8.94089 63.9799 9.50155 63.9799 10.0835C63.9799 10.6654 64.2003 11.226 64.5973 11.6542Z" fill="black" stroke="black" stroke-width="0.411304" stroke-miterlimit="10"/>
<path d="M69.9331 12.823V7.34363H70.7887L73.4751 11.6084V10.5491V7.34363H74.1835V12.823H73.4475L70.6415 8.35732V9.40754V12.823H69.9331Z" fill="black" stroke="black" stroke-width="0.411304" stroke-miterlimit="10"/>
<path d="M63.0886 20.814C62.3135 20.8158 61.5563 21.0457 60.9128 21.4747C60.2693 21.9037 59.7684 22.5125 59.4734 23.224C59.1785 23.9356 59.1027 24.718 59.2557 25.4723C59.4088 26.2266 59.7837 26.9189 60.333 27.4617C60.8824 28.0045 61.5817 28.3734 62.3423 28.5218C63.1029 28.6701 63.8907 28.5912 64.6061 28.2951C65.3216 27.999 65.9325 27.4989 66.3616 26.8581C66.7908 26.2174 67.0188 25.4647 67.017 24.6952C67.0245 24.1819 66.9279 23.6724 66.7329 23.1969C66.5379 22.7215 66.2485 22.2898 65.882 21.9277C65.5154 21.5655 65.0792 21.2803 64.5993 21.089C64.1194 20.8977 63.6057 20.8041 63.0886 20.814ZM63.0886 27.0514C62.6135 27.0844 62.1394 26.9747 61.7279 26.7367C61.3164 26.4986 60.9866 26.1432 60.7813 25.7166C60.576 25.29 60.5047 24.812 60.5767 24.3447C60.6487 23.8774 60.8607 23.4423 61.1851 23.0962C61.5095 22.75 61.9313 22.5088 62.3956 22.4037C62.86 22.2987 63.3455 22.3347 63.7889 22.5072C64.2324 22.6797 64.6133 22.9806 64.8822 23.3708C65.1511 23.761 65.2955 24.2225 65.2966 24.6952C65.3114 24.9948 65.2657 25.2943 65.1621 25.576C65.0584 25.8577 64.899 26.116 64.6932 26.3356C64.4874 26.5552 64.2394 26.7316 63.9639 26.8546C63.6883 26.9775 63.3907 27.0444 63.0886 27.0514ZM54.5142 20.814C53.7391 20.8158 52.9819 21.0457 52.3384 21.4747C51.6949 21.9037 51.194 22.5125 50.899 23.224C50.6041 23.9356 50.5283 24.718 50.6813 25.4723C50.8344 26.2266 51.2093 26.9189 51.7586 27.4617C52.308 28.0045 53.0073 28.3734 53.7679 28.5218C54.5285 28.6701 55.3163 28.5912 56.0317 28.2951C56.7472 27.999 57.3581 27.4989 57.7872 26.8581C58.2164 26.2174 58.4444 25.4647 58.4426 24.6952C58.4501 24.1819 58.3535 23.6724 58.1585 23.1969C57.9635 22.7215 57.6741 22.2898 57.3076 21.9277C56.941 21.5655 56.5048 21.2803 56.0249 21.089C55.545 20.8977 55.0313 20.8041 54.5142 20.814ZM54.5142 27.0514C54.0391 27.0844 53.565 26.9747 53.1535 26.7367C52.742 26.4986 52.4122 26.1432 52.2069 25.7166C52.0016 25.29 51.9303 24.812 52.0023 24.3447C52.0743 23.8774 52.2863 23.4423 52.6107 23.0962C52.9351 22.75 53.3569 22.5088 53.8212 22.4037C54.2856 22.2987 54.7711 22.3347 55.2145 22.5072C55.658 22.6797 56.0389 22.9806 56.3078 23.3708C56.5767 23.761 56.7211 24.2225 56.7222 24.6952C56.737 24.9948 56.6913 25.2943 56.5877 25.576C56.484 25.8577 56.3246 26.116 56.1188 26.3356C55.913 26.5552 55.665 26.7316 55.3895 26.8546C55.1139 26.9775 54.8163 27.0444 54.5142 27.0514ZM44.3206 22.0103V23.6541H48.295C48.2327 24.4284 47.9085 25.159 47.375 25.7272C46.9763 26.1304 46.4968 26.446 45.9675 26.6537C45.4382 26.8613 44.8709 26.9564 44.3022 26.9327C43.131 26.9327 42.0078 26.4708 41.1796 25.6488C40.3515 24.8267 39.8862 23.7117 39.8862 22.5491C39.8862 21.3865 40.3515 20.2716 41.1796 19.4495C42.0078 18.6274 43.131 18.1656 44.3022 18.1656C45.425 18.149 46.5092 18.5723 47.3198 19.3437L48.4882 18.1839C47.9399 17.6455 47.2888 17.2212 46.5732 16.9358C45.8576 16.6504 45.0918 16.5097 44.3206 16.5218C43.5027 16.4902 42.6868 16.6228 41.9218 16.9117C41.1568 17.2006 40.4584 17.6398 39.8685 18.2031C39.2786 18.7663 38.8093 19.4419 38.4887 20.1895C38.1682 20.9371 38.0029 21.7412 38.0029 22.5537C38.0029 23.3662 38.1682 24.1703 38.4887 24.9179C38.8093 25.6655 39.2786 26.3411 39.8685 26.9043C40.4584 27.4676 41.1568 27.9068 41.9218 28.1957C42.6868 28.4846 43.5027 28.6172 44.3206 28.5856C45.1076 28.6168 45.8923 28.4824 46.6233 28.1912C47.3542 27.9001 48.0149 27.4587 48.5618 26.8961C49.5279 25.8426 50.0427 24.457 49.997 23.0331C50.0003 22.6904 49.9726 22.3481 49.9142 22.0103H44.3206ZM86.0058 23.2889C85.7659 22.5882 85.3172 21.9763 84.7192 21.5344C84.1212 21.0924 83.4021 20.8412 82.657 20.814C82.1538 20.813 81.6557 20.9145 81.1935 21.1122C80.7314 21.3099 80.315 21.5996 79.97 21.9633C79.6251 22.3271 79.3591 22.7572 79.1883 23.2271C79.0175 23.697 78.9456 24.1967 78.977 24.6952C78.9692 25.5289 79.2332 26.3427 79.7297 27.0151C80.2262 27.6875 80.9285 28.1824 81.7317 28.4259C82.535 28.6694 83.396 28.6485 84.1863 28.3662C84.9765 28.0839 85.6535 27.5554 86.1162 26.8596L84.7822 25.9464C84.5834 26.2754 84.3013 26.5471 83.964 26.7345C83.6267 26.9219 83.2459 27.0186 82.8594 27.0149C82.4607 27.0312 82.0663 26.9274 81.728 26.7172C81.3898 26.5069 81.1235 26.2 80.9642 25.8368L86.199 23.6907L86.0058 23.2889ZM80.6698 24.5856C80.6512 24.302 80.6897 24.0175 80.7832 23.7488C80.8767 23.4801 81.0233 23.2326 81.2144 23.0208C81.4054 22.8091 81.6371 22.6373 81.8959 22.5155C82.1547 22.3937 82.4353 22.3244 82.7214 22.3117C83.0178 22.2937 83.313 22.363 83.57 22.5108C83.8269 22.6587 84.0342 22.8785 84.1658 23.1427L80.6698 24.5856ZM76.4194 28.3482H78.1398V16.9327H76.4194V28.3482ZM73.6042 21.6816H73.5398C73.2828 21.391 72.9656 21.159 72.61 21.0014C72.2543 20.8438 71.8685 20.7643 71.479 20.7683C70.4736 20.8167 69.5255 21.2472 68.8312 21.9707C68.1369 22.6941 67.7496 23.655 67.7496 24.6541C67.7496 25.6533 68.1369 26.6142 68.8312 27.3376C69.5255 28.061 70.4736 28.4916 71.479 28.54C71.8691 28.5477 72.256 28.4699 72.6123 28.312C72.9685 28.1542 73.2852 27.9202 73.5398 27.6267H73.6042V28.1838C73.6042 29.6724 72.8038 30.4669 71.5158 30.4669C71.0856 30.4575 70.6678 30.3214 70.3156 30.0759C69.9634 29.8303 69.6927 29.4865 69.5378 29.0879L68.0474 29.6998C68.323 30.3867 68.8021 30.9745 69.4213 31.3855C70.0406 31.7964 70.771 32.011 71.5158 32.0011C73.5306 32.0011 75.1958 30.823 75.1958 27.9555V21.0423H73.6042V21.6816ZM71.6262 27.0514C71.0234 27.0141 70.4577 26.7501 70.0441 26.3132C69.6305 25.8763 69.4003 25.2993 69.4003 24.6998C69.4003 24.1003 69.6305 23.5233 70.0441 23.0864C70.4577 22.6495 71.0234 22.3855 71.6262 22.3482C71.9208 22.3608 72.2099 22.4322 72.4762 22.5579C72.7425 22.6837 72.9805 22.8614 73.1762 23.0803C73.3719 23.2993 73.5213 23.5551 73.6153 23.8326C73.7094 24.11 73.7463 24.4034 73.7238 24.6952C73.7489 24.9881 73.7139 25.283 73.6209 25.562C73.5279 25.8411 73.3789 26.0985 73.1828 26.3188C72.9868 26.539 72.7477 26.7175 72.4802 26.8434C72.2126 26.9693 71.9221 27.0401 71.6262 27.0514ZM94.065 16.9327H89.9434V28.3482H91.6638V24.0194H94.065C94.5553 24.0544 95.0476 23.9887 95.5113 23.8265C95.9749 23.6643 96.3999 23.409 96.7597 23.0765C97.1195 22.7441 97.4065 22.3416 97.6028 21.8942C97.799 21.4468 97.9003 20.9641 97.9003 20.4761C97.9003 19.9881 97.799 19.5054 97.6028 19.058C97.4065 18.6106 97.1195 18.2081 96.7597 17.8757C96.3999 17.5432 95.9749 17.2879 95.5113 17.1257C95.0476 16.9634 94.5553 16.8978 94.065 16.9327ZM94.065 22.4121H91.6638V18.5218H94.1018C94.3604 18.5218 94.6164 18.5723 94.8552 18.6705C95.0941 18.7687 95.3111 18.9127 95.494 19.0942C95.6768 19.2756 95.8218 19.4911 95.9208 19.7282C96.0197 19.9653 96.0706 20.2194 96.0706 20.4761C96.0706 20.7327 96.0197 20.9869 95.9208 21.224C95.8218 21.4611 95.6768 21.6765 95.494 21.858C95.3111 22.0395 95.0941 22.1834 94.8552 22.2816C94.6164 22.3799 94.3604 22.4304 94.1018 22.4304L94.065 22.4121ZM104.682 20.7775C104.055 20.7391 103.431 20.8839 102.887 21.1939C102.342 21.5039 101.901 21.9656 101.618 22.5217L103.136 23.1519C103.29 22.8774 103.52 22.6528 103.799 22.5053C104.078 22.3578 104.394 22.2938 104.709 22.3208C104.928 22.2955 105.149 22.3136 105.36 22.3741C105.572 22.4346 105.769 22.5362 105.94 22.6731C106.111 22.8099 106.253 22.9793 106.358 23.1712C106.463 23.3632 106.528 23.5739 106.549 23.7911V23.9007C105.996 23.6121 105.38 23.4616 104.755 23.4624C103.118 23.4624 101.443 24.3756 101.443 26.0377C101.46 26.391 101.547 26.7374 101.701 27.0564C101.855 27.3755 102.071 27.6606 102.338 27.8949C102.605 28.1291 102.917 28.3077 103.255 28.4201C103.592 28.5325 103.949 28.5764 104.305 28.5491C104.736 28.5728 105.167 28.4821 105.551 28.2863C105.936 28.0905 106.262 27.7967 106.494 27.4349H106.549V28.3482H108.205V23.9555C108.205 21.9555 106.678 20.7957 104.719 20.7957L104.682 20.7775ZM104.47 27.0331C103.909 27.0331 103.127 26.75 103.127 26.0651C103.127 25.1519 104.102 24.8414 104.967 24.8414C105.514 24.828 106.054 24.9604 106.531 25.2249C106.473 25.7209 106.236 26.1792 105.864 26.515C105.492 26.8509 105.01 27.0414 104.507 27.0514L104.47 27.0331ZM114.241 21.0423L112.272 25.992H112.217L110.174 21.0423H108.334L111.398 27.9646L109.65 31.8093H111.444L116.154 21.0423H114.241ZM98.7846 28.3482H100.496V16.9327H98.7846V28.3482Z" fill="black"/>
<path d="M10.0042 7.83688C9.70106 8.19269 9.54637 8.65008 9.57183 9.11541V29.3162C9.54052 29.7823 9.69593 30.2418 10.0042 30.5947L10.0686 30.6678L21.4674 19.3528V19.0788L10.0686 7.77295L10.0042 7.83688Z" fill="url(#paint0_linear_151_8497)"/>
<path d="M25.2403 23.1244L21.4683 19.3528V19.0788L25.2403 15.3071L25.3231 15.3619L29.8403 17.9007C31.1283 18.6222 31.1283 19.8094 29.8403 20.54L25.3415 23.0788L25.2403 23.1244Z" fill="url(#paint1_linear_151_8497)"/>
<path d="M25.3505 23.0697L21.4681 19.2158L10.0049 30.5947C10.2649 30.8244 10.5976 30.9566 10.9454 30.9683C11.2933 30.9799 11.6343 30.8704 11.9093 30.6587L25.3505 23.0697Z" fill="url(#paint2_linear_151_8497)"/>
<path d="M25.3505 15.3621L11.9093 7.7822C11.6361 7.56751 11.2953 7.45532 10.947 7.46534C10.5987 7.47536 10.2651 7.60696 10.0049 7.837L21.4681 19.2159L25.3505 15.3621Z" fill="url(#paint3_linear_151_8497)"/>
<path opacity="0.2" d="M25.2401 22.9874L11.9093 30.5216C11.6443 30.7202 11.3213 30.8276 10.9893 30.8276C10.6573 30.8276 10.3343 30.7202 10.0693 30.5216L10.0049 30.5855L10.0693 30.6586C10.3343 30.8571 10.6573 30.9645 10.9893 30.9645C11.3213 30.9645 11.6443 30.8571 11.9093 30.6586L25.3505 23.0696L25.2401 22.9874Z" fill="black"/>
<path opacity="0.12" d="M10.0053 30.4669C9.70978 30.1046 9.56496 29.644 9.60049 29.1792V29.3162C9.56919 29.7823 9.72459 30.2418 10.0329 30.5947L10.0973 30.5308L10.0053 30.4669Z" fill="black"/>
<path opacity="0.12" d="M29.8397 20.403L25.2397 22.9875L25.3225 23.0697L29.8397 20.5309C30.1064 20.419 30.3377 20.2377 30.5093 20.0063C30.6809 19.7749 30.7865 19.5018 30.8149 19.2158C30.7574 19.4757 30.6392 19.7185 30.4698 19.9247C30.3004 20.131 30.0846 20.2948 29.8397 20.403Z" fill="black"/>
<path opacity="0.25" d="M11.9086 7.90985L29.8394 18.0285C30.0842 18.1367 30.3001 18.3006 30.4695 18.5068C30.6388 18.713 30.7571 18.9558 30.8146 19.2157C30.7862 18.9297 30.6806 18.6566 30.509 18.4252C30.3373 18.1938 30.106 18.0126 29.8394 17.9006L11.9086 7.78199C10.6298 7.0514 9.57178 7.65414 9.57178 9.11532V9.2523C9.59938 7.79113 10.6298 7.18839 11.9086 7.90985Z" fill="white"/>
</g>
<defs>
<linearGradient id="paint0_linear_151_8497" x1="20.4554" y1="8.90536" x2="5.13176" y2="24.3425" gradientUnits="userSpaceOnUse">
<stop stop-color="#00A0FF"/>
<stop offset="0.01" stop-color="#00A1FF"/>
<stop offset="0.26" stop-color="#00BEFF"/>
<stop offset="0.51" stop-color="#00D2FF"/>
<stop offset="0.76" stop-color="#00DFFF"/>
<stop offset="1" stop-color="#00E3FF"/>
</linearGradient>
<linearGradient id="paint1_linear_151_8497" x1="31.5239" y1="19.2158" x2="9.26906" y2="19.2158" gradientUnits="userSpaceOnUse">
<stop stop-color="#FFE000"/>
<stop offset="0.41" stop-color="#FFBD00"/>
<stop offset="0.78" stop-color="#FFA500"/>
<stop offset="1" stop-color="#FF9C00"/>
</linearGradient>
<linearGradient id="paint2_linear_151_8497" x1="23.2437" y1="21.3163" x2="2.45895" y2="42.2458" gradientUnits="userSpaceOnUse">
<stop stop-color="#FF3A44"/>
<stop offset="1" stop-color="#C31162"/>
</linearGradient>
<linearGradient id="paint3_linear_151_8497" x1="7.11608" y1="1.11559" x2="16.3943" y2="10.4625" gradientUnits="userSpaceOnUse">
<stop stop-color="#32A071"/>
<stop offset="0.07" stop-color="#2DA771"/>
<stop offset="0.48" stop-color="#15CF74"/>
<stop offset="0.8" stop-color="#06E775"/>
<stop offset="1" stop-color="#00F076"/>
</linearGradient>
<clipPath id="clip0_151_8497">
<rect width="124.2" height="36.5294" fill="white" transform="translate(0.399902 0.951172)"/>
</clipPath>
</defs>
</svg>
